<?xml version="1.0" encoding="UTF-8"?>
<svg id="Layer_1" data-name="Layer 1" xmlns="http://www.w3.org/2000/svg" xmlns:xlink="http://www.w3.org/1999/xlink" viewBox="0 0 479.93 801.35">
  <defs>
    <style>
      .cls-1 {
        clip-path: url(#clippath);
      }

      .cls-2 {
        fill: none;
      }

      .cls-2, .cls-3, .cls-4, .cls-5, .cls-6, .cls-7, .cls-8 {
        stroke-width: 0px;
      }

      .cls-3 {
        fill: #221f1f;
      }

      .cls-9 {
        stroke: #c3d83a;
        stroke-miterlimit: 10;
      }

      .cls-9, .cls-4 {
        fill: #c4f135;
      }

      .cls-5 {
        fill: #a5968e;
      }

      .cls-6 {
        fill: #c2b2a8;
      }

      .cls-7 {
        fill: #80736d;
      }

      .cls-8 {
        fill: #25392b;
      }
    </style>
    <clipPath id="clippath">
      <rect class="cls-2" x="194.98" y="439.56" width="128.53" height="20.06"/>
    </clipPath>
  </defs>
  <circle class="cls-5" cx="236.4" cy="236.87" r="236.4"/>
  <path class="cls-5" d="M0,236.87C0,268.23,4.45,299.44,13.22,329.55l128.62,474.69h47.28v-378.24C189.12,321.54,104.45,236.87,0,236.87Z"/>
  <path class="cls-5" d="M472.81,236.87c0,31.36-4.45,62.56-13.22,92.68l-128.62,474.69h-47.28v-378.24c0-104.45,84.67-189.12,189.12-189.12Z"/>
  <rect class="cls-7" x="141.84" y="709.68" width="189.12" height="94.56"/>
  <polygon class="cls-7" points="236.4 284.15 212.76 260.51 139.79 219.81 146.7 189.59 236.4 189.59 236.4 284.15"/>
  <path class="cls-7" d="M307.32,378.71h-23.64v378.24h23.64l42.6-43.09v-224.24c0-40.97-15.18-80.49-42.6-110.92Z"/>
  <path class="cls-7" d="M385.04,531.26l-101.67-57.99v296.58l94.87-12.89,14.33-9.55c35.36-23.57,56.59-63.25,56.59-105.75h0c0-45.65-24.48-87.78-64.13-110.4Z"/>
  <path class="cls-7" d="M189.12,378.71h-23.64c-27.42,30.44-42.6,69.95-42.6,110.92v220.04h66.24v-330.96Z"/>
  <g>
    <path class="cls-7" d="M87.45,531.26l101.67-57.99v296.58s-94.87-12.89-94.87-12.89l-14.33-9.55c-35.36-23.57-56.59-63.25-56.59-105.75h0c0-45.65,24.48-87.78,64.13-110.4Z"/>
    <path class="cls-6" d="M236.4,756.96h0c-39.17,0-70.92-31.75-70.92-70.92v-401.89h141.84v401.89c0,39.17-31.75,70.92-70.92,70.92Z"/>
    <path class="cls-7" d="M46.97,804.24c0-26.11,21.17-47.28,47.28-47.28h94.56s.31,42.34.31,47.28H46.97Z"/>
  </g>
  <polygon class="cls-7" points="236.4 284.15 260.04 260.51 333.02 219.81 326.1 189.59 236.4 189.59 236.4 284.15"/>
  <path class="cls-6" d="M260.04,260.51c0-26.6,21.96-48.06,48.73-47.26h22.73s.03.09.03.09l16.29,71.2c6.64,29-2.76,59.33-24.62,79.5l-15.89,14.66h-47.28v-118.2Z"/>
  <g>
    <path class="cls-7" d="M183.76,213.23l-13.28-65.09c-.69-3.4-3.68-5.84-7.15-5.84h0c-3.4,0-6.35,2.35-7.11,5.67l-14.93,65.25h42.47Z"/>
    <path class="cls-6" d="M212.76,260.51c0-26.6-21.96-48.06-48.73-47.26h-22.73l-.03.09-16.29,71.2c-6.64,29,2.76,59.33,24.62,79.5l15.89,14.66h47.28v-118.2Z"/>
    <circle class="cls-3" cx="165.48" cy="260.51" r="23.64"/>
  </g>
  <path class="cls-5" d="M260.04,260.51h-47.28c0,15.79-7.77,29.73-19.65,38.32,5.15,9.1,14.8,15.32,26.01,15.32h34.58c11.2,0,20.86-6.22,26.01-15.32-11.89-8.59-19.66-22.53-19.66-38.32Z"/>
  <polygon class="cls-3" points="236.4 284.15 260.04 260.51 212.76 260.51 236.4 284.15 236.4 284.15"/>
  <path class="cls-7" d="M289.05,213.23l13.28-65.09c.69-3.4,3.68-5.84,7.15-5.84h0c3.4,0,6.35,2.35,7.11,5.67l14.93,65.25h-42.47Z"/>
  <circle class="cls-3" cx="307.32" cy="260.51" r="23.64"/>
  <path class="cls-7" d="M425.53,804.24c0-26.11-21.17-47.28-47.28-47.28h-94.56s-.31,42.34-.31,47.28h142.15Z"/>
  <g>
    <circle class="cls-5" cx="94.25" cy="650.58" r="11.82"/>
    <circle class="cls-5" cx="94.25" cy="579.66" r="11.82"/>
  </g>
  <g>
    <circle class="cls-5" cx="378.24" cy="650.58" r="11.82"/>
    <circle class="cls-5" cx="378.24" cy="579.66" r="11.82"/>
  </g>
  <path class="cls-5" d="M47.28,804.24c0-26.11,21.17-47.28,47.28-47.28s47.28,21.17,47.28,47.28"/>
  <path class="cls-5" d="M330.96,804.24c0-26.11,21.17-47.28,47.28-47.28s47.28,21.17,47.28,47.28"/>
  <path class="cls-9" d="M163.29,378.71c7.06,5.63,34.8,26.39,75.77,25.49,37.72-.83,63.04-19.51,70.54-25.49,9.67,10.86,21.28,26.35,30.6,46.77,16.45,36.02,17.33,68.86,16.32,87.4H119.35c-1.7-15.37-2.67-43.15,8.61-75.16,9.93-28.2,25.2-47.86,35.33-59.01Z"/>
  <path class="cls-7" d="M138.15,461.93c8.31-6.15,18.3-14.69,28.23-26.15,9.71-11.2,16.64-22.05,21.52-30.99-20.42-12.32-36.3-23.28-47.02-30.99-12.85-9.25-26.43-17.47-39.04-27.04-13.61-10.33-28-22.28-39.2-17.62-1,.42-2.62,1.93-2.83,2.47-4.16,10.75,5.43,23.72,14.23,35.67,22.66,30.77,21.66,29.63,22.1,30.13,11.51,13.12,26.77,33.47,42.01,64.52Z"/>
  <path class="cls-4" d="M191.76,404.39c-18.5-11.53-37.01-23.07-55.51-34.6-10.87,12.65-21.74,25.3-32.6,37.94,11.45,19.24,22.89,38.49,34.34,57.73,9.54-6.57,21.61-16.33,33.29-30.26,9.32-11.11,15.89-21.89,20.49-30.82Z"/>
  <path class="cls-7" d="M330.96,463.42c-8.31-6.15-18.3-14.69-28.23-26.15-9.71-11.2-16.64-22.05-21.52-30.99,20.42-12.32,36.3-23.28,47.02-30.99,12.85-9.25,26.43-17.47,39.04-27.04,13.61-10.33,28-22.28,39.2-17.62,1,.42,2.62,1.93,2.83,2.47,4.16,10.75-5.43,23.72-14.23,35.67-22.66,30.77-21.66,29.63-22.1,30.13-11.51,13.12-26.77,33.47-42.01,64.52Z"/>
  <path class="cls-4" d="M277.35,405.88c18.5-11.53,37.01-23.07,55.51-34.6,10.87,12.65,21.74,25.3,32.6,37.94-11.45,19.24-22.89,38.49-34.34,57.73-9.54-6.57-21.61-16.33-33.29-30.26-9.32-11.11-15.89-21.89-20.49-30.82Z"/>
  <path class="cls-7" d="M397.61,329.97h0c-1.2.32-9.67,2.7-12.82,10.65-.67,1.69-3.19,8.16.72,12.9,2.71,3.3,7.88,4.37,12.9,2.87,3.11-2.15,6.21-4.3,9.32-6.45,4.7-7.93,3.25-16.3-1.26-19.29-2.49-1.65-9.03-.68-8.86-.67Z"/>
  <g>
    <path class="cls-8" d="M158.34,465.24c.11.12.25.2.4.25.15.05.31.05.47.01.15-.04.3-.11.41-.22.12-.11.2-.25.25-.4l1.21-4.41,5.52-20.84c.03-.11.09-.22.18-.29.09-.07.2-.11.32-.11s.23.04.32.11c.09.07.16.17.18.29l.59,1.6c.21.57.55,1.08,1,1.48.45.4.99.69,1.58.84l5.16,1.42c.5.14.95.42,1.28.82.34.4.54.88.6,1.4.04.62-.07,1.24-.3,1.81-.24.57-.6,1.08-1.06,1.49l-1.29,1.11c-1.02.9-1.75,2.08-2.09,3.39-.34,1.32-.28,2.7.18,3.98l2.11,5.93c.05.13.13.26.23.36.1.1.23.17.36.22.14.04.28.06.42.04.14-.02.28-.07.4-.15,2.67-1.97,4.74-4.65,5.97-7.74,1.23-3.09,1.56-6.46.97-9.72-.62-3.49-2.28-6.71-4.76-9.25-2.48-2.53-5.66-4.26-9.14-4.97-2.42-.49-4.91-.47-7.33.05-2.41.53-4.69,1.55-6.68,3.01-1.99,1.46-3.66,3.31-4.9,5.45-1.23,2.14-2.01,4.51-2.28,6.96-.03.2,0,.41.06.61.07.2.18.37.33.52.15.14.33.25.52.32.2.06.4.08.61.05.7-.06,1.4.02,2.06.24.66.22,1.27.58,1.78,1.05.51.47.93,1.05,1.21,1.68.28.64.42,1.33.42,2.03v2.58c.03,2.58.99,5.06,2.71,6.99Z"/>
    <path class="cls-8" d="M170.52,448.38c.88,0,1.6-.72,1.6-1.6s-.72-1.6-1.6-1.6-1.6.72-1.6,1.6.72,1.6,1.6,1.6Z"/>
    <g class="cls-1">
      <g>
        <path class="cls-8" d="M215.38,444.58c-.78-.58-1.76-.88-2.9-.88-2.22,0-3.98.86-5.22,2.57-.35-.62-.84-1.17-1.46-1.63-.83-.62-1.83-.93-2.97-.93-1.27,0-2.33.27-3.14.81-.49.33-.94.71-1.35,1.14v-.11c0-.46-.17-.87-.5-1.2-.66-.66-1.74-.66-2.38,0-.32.33-.48.73-.48,1.19v13.95h3.36v-9.2c0-.26,0-.54.03-.81.03-.28.19-.49.36-.71.34-.46.73-.87,1.17-1.23.57-.45,1.3-.68,2.19-.68.94,0,1.6.24,1.96.72.39.51.58,1.36.58,2.51v9.39h3.36v-9.04c0-.25,0-.51,0-.76,0-.3.06-.45.23-.7.37-.54.81-1.04,1.33-1.44.58-.46,1.29-.68,2.19-.68.94,0,1.6.24,1.96.72.39.51.58,1.36.58,2.51v9.39h3.36v-9.91c0-.96-.18-1.89-.54-2.78-.37-.9-.94-1.65-1.71-2.22Z"/>
        <path class="cls-8" d="M232.11,444.69c-1.16-.66-2.51-.99-4.02-.99s-2.89.33-4.05.99c-1.17.66-2.08,1.62-2.71,2.83-.63,1.2-.94,2.6-.94,4.14s.32,2.94.94,4.14c.63,1.21,1.54,2.17,2.71,2.83,1.16.66,2.52.99,4.05.99s2.86-.33,4.02-.99c1.17-.66,2.08-1.61,2.72-2.83.64-1.2.96-2.6.96-4.14s-.32-2.94-.96-4.14c-.64-1.21-1.56-2.16-2.72-2.83ZM231.78,454.42c-.43.72-.97,1.25-1.62,1.58-1.34.68-2.88.66-4.18,0-.65-.33-1.19-.86-1.61-1.57-.42-.72-.64-1.66-.64-2.79s.21-2.04.64-2.76c.42-.71.96-1.24,1.6-1.56.66-.33,1.37-.49,2.11-.49s1.42.17,2.08.49c.64.32,1.19.84,1.62,1.56.43.72.65,1.65.65,2.76s-.22,2.07-.65,2.78Z"/>
        <path class="cls-8" d="M292.41,444.5c-.83-.53-1.82-.8-2.94-.8-1.2,0-2.27.26-3.17.77-.62.36-1.22.8-1.79,1.33v-.26c0-.46-.17-.87-.5-1.2-.66-.66-1.74-.66-2.38,0-.31.33-.48.73-.48,1.19v13.95h3.36v-8.1c0-.56,0-1.12,0-1.69,0-.08,0-.16,0-.24,0-.19.25-.39.37-.53.17-.18.34-.36.52-.53.33-.31.69-.6,1.07-.86.69-.45,1.48-.68,2.35-.68,1.89,0,2.77.99,2.77,3.12v9.51h3.36v-9.79c0-1.08-.22-2.09-.65-3-.44-.92-1.08-1.65-1.91-2.19Z"/>
        <path class="cls-8" d="M322.56,447.52c-.64-1.21-1.56-2.16-2.72-2.83-1.16-.66-2.51-.99-4.02-.99s-2.89.33-4.05.99c-1.17.66-2.08,1.62-2.71,2.83-.63,1.21-.94,2.6-.94,4.14s.32,2.94.94,4.14c.63,1.22,1.55,2.17,2.71,2.83,1.16.66,2.52.99,4.05.99s2.86-.33,4.02-.99c1.16-.66,2.08-1.61,2.72-2.83.64-1.2.96-2.6.96-4.14s-.32-2.94-.96-4.14ZM319.51,454.42c-.43.72-.97,1.25-1.62,1.58-1.34.68-2.88.66-4.18,0-.65-.33-1.19-.86-1.61-1.57-.42-.72-.64-1.66-.64-2.79s.21-2.04.64-2.76c.42-.71.96-1.24,1.6-1.56.66-.33,1.37-.49,2.11-.49s1.42.17,2.08.49c.65.32,1.19.84,1.62,1.56.43.72.65,1.65.65,2.76s-.22,2.06-.65,2.78Z"/>
        <path class="cls-8" d="M275.16,444.75c-1.09-.7-2.39-1.05-3.87-1.05-1.58,0-2.93.38-4.02,1.13-1.09.74-1.9,1.73-2.42,2.94-.51,1.19-.77,2.5-.77,3.9,0,2.5.69,4.47,2.07,5.86,1.37,1.39,3.3,2.1,5.72,2.1,1.17,0,2.15-.11,2.91-.33.75-.22,1.52-.55,2.29-.98.03-.02.05-.03.08-.05l.77-.45-1.6-2.54-.8.42c-.46.21-.93.4-1.4.52-.57.14-1.25.22-2.01.22-1.41,0-2.51-.34-3.27-1.02-.69-.61-1.12-1.42-1.31-2.46h9.27c.51,0,.92-.16,1.23-.49.31-.32.46-.71.46-1.18,0-1.35-.28-2.61-.84-3.76-.56-1.15-1.4-2.09-2.48-2.79ZM267.49,450.08c.09-.69.3-1.28.62-1.76.38-.57.86-.99,1.42-1.26,1.15-.54,2.36-.54,3.52,0,.57.27,1.05.69,1.44,1.26.33.48.54,1.07.63,1.76h-7.62Z"/>
        <path class="cls-8" d="M259,444.58c-.78-.58-1.76-.88-2.9-.88-2.22,0-3.98.86-5.22,2.57-.35-.62-.84-1.17-1.46-1.63-.83-.62-1.83-.93-2.97-.93-1.27,0-2.33.27-3.14.81-.49.33-.94.71-1.35,1.14v-.11c0-.46-.17-.87-.5-1.2-.66-.66-1.74-.66-2.38,0-.32.33-.48.73-.48,1.19v13.95h3.36v-9.2c0-.26,0-.54.03-.81.03-.28.19-.49.36-.71.34-.46.73-.87,1.17-1.23.57-.45,1.3-.68,2.19-.68.94,0,1.6.24,1.96.72.39.51.58,1.36.58,2.51v9.39h3.36v-9.04c0-.25,0-.51,0-.76,0-.3.06-.45.23-.7.37-.54.81-1.04,1.33-1.44.58-.46,1.29-.68,2.19-.68.94,0,1.6.24,1.96.72.39.51.58,1.36.58,2.51v9.39h3.36v-9.91c0-.96-.18-1.89-.54-2.78-.37-.9-.94-1.65-1.71-2.22Z"/>
        <path class="cls-8" d="M305.79,456.14l-1.26.37c-.7.18-1.14.26-1.72-.18-.26-.2-.34-.68-.34-1.09v-8.27h3.99v-2.98h-4v-2.74c0-.93-.75-1.68-1.68-1.68s-1.68.75-1.68,1.68v2.74h-2.55v2.98h2.55v8.5c0,2.72,1.58,4.15,4.56,4.15.86,0,1.67-.18,2.45-.52l.98-.44-1.3-2.53Z"/>
      </g>
    </g>
  </g>
</svg>